<?xml version="1.0" encoding="UTF-8"?>
<!DOCTYPE svg PUBLIC "-//W3C//DTD SVG 1.1//EN" "http://www.w3.org/Graphics/SVG/1.1/DTD/svg11.dtd">
<!-- Creator: CorelDRAW X8 -->
<svg xmlns="http://www.w3.org/2000/svg" xml:space="preserve" width="21cm" height="29.7cm" version="1.1" style="shape-rendering:geometricPrecision; text-rendering:geometricPrecision; image-rendering:optimizeQuality; fill-rule:evenodd; clip-rule:evenodd"
viewBox="0 0 2100000 2970000"
 xmlns:xlink="http://www.w3.org/1999/xlink">
 <defs>
  <style type="text/css">
   <![CDATA[
    .fil0 {fill:white}
   ]]>
  </style>
 </defs>
 <g id="Слой_x0020_1">
  <metadata id="CorelCorpID_0Corel-Layer"/>
  <g id="XMLID_496_">
   <path id="XMLID_497_" class="fil0" d="M100508 1449861l453588 169293 175566 564619c11234,36161 55453,49527 84804,25532l252837 -206119c26502,-21595 64252,-22670 91949,-2566l456028 331086c31398,22822 75881,5616 83755,-32324l334066 -1606911c8596,-41444 -32126,-76019 -71589,-60756l-1861535 718126c-45940,17717 -45539,82757 531,100020zm600859 79175l886481 -545984c15932,-9784 32324,11758 18642,24449l-731604 680060c-25715,23937 -42304,55972 -47002,90743l-24921 184687c-3300,24658 -37941,27107 -44746,3242l-95848 -336782c-10975,-38414 5021,-79444 38998,-100415z"/>
  </g>
  <g id="_415353288">
  </g>
  <g id="_415357344">
  </g>
  <g id="_415357920">
  </g>
  <g id="_415357968">
  </g>
  <g id="_415359144">
  </g>
  <g id="_415359000">
  </g>
  <g id="_415359408">
  </g>
  <g id="_415359264">
  </g>
  <g id="_415359432">
  </g>
  <g id="_415358808">
  </g>
  <g id="_415358664">
  </g>
  <g id="_415358184">
  </g>
  <g id="_415358064">
  </g>
  <g id="_415358328">
  </g>
  <g id="_415357176">
  </g>
 </g>
</svg>
